<svg width="144" height="46" viewBox="0 0 144 46" fill="none" xmlns="http://www.w3.org/2000/svg">
<path fill-rule="evenodd" clip-rule="evenodd" d="M42.5671 5.61544C43.1051 5.8366 43.5435 6.13149 43.8822 6.50009L48.0816 2.74708L47.4392 6.05776H52.7892L50.0993 20.2398H57.0334L59.7233 6.05776H64.894L65.9401 0.666922H48.4853L48.1488 2.40073C47.8001 2.09003 47.3842 1.80697 46.901 1.55157C46.343 1.25669 45.7353 1.00788 45.0778 0.805149C44.4202 0.583986 43.7228 0.418113 42.9856 0.307532C42.2483 0.17852 41.5011 0.114014 40.7439 0.114014C39.3691 0.114014 38.1038 0.298317 36.9481 0.666922C35.8124 1.0171 34.826 1.51471 33.9892 2.15977C33.1722 2.7864 32.5346 3.53282 32.0763 4.39904C31.6379 5.26526 31.4188 6.20521 31.4188 7.21887C31.4188 8.04823 31.5582 8.75779 31.8372 9.34756C32.1162 9.9189 32.4947 10.4165 32.973 10.8404C33.4711 11.2459 34.0489 11.596 34.7065 11.8909C35.384 12.1858 36.1013 12.4438 36.8585 12.665C37.8149 12.9415 38.4625 13.2087 38.8012 13.4667C39.1599 13.7247 39.3392 14.0196 39.3392 14.3514C39.3392 14.7568 39.13 15.0701 38.7115 15.2913C38.2931 15.494 37.7352 15.5954 37.0378 15.5954C36.719 15.5954 36.3703 15.5585 35.9917 15.4848C35.6131 15.3927 35.2345 15.2821 34.8559 15.1531C34.4973 15.0056 34.1486 14.8306 33.8098 14.6278C33.4711 14.4251 33.1822 14.1947 32.9431 13.9367L28.2207 17.9729C28.7188 18.4152 29.3066 18.8115 29.9841 19.1617C30.6616 19.5118 31.3789 19.8067 32.1361 20.0463C32.9132 20.2859 33.7202 20.4702 34.557 20.5992C35.3939 20.7282 36.2308 20.7927 37.0677 20.7927C38.1237 20.7927 39.2097 20.6637 40.3255 20.4057C41.4413 20.1477 42.4575 19.7422 43.3741 19.1893C44.3106 18.6364 45.0778 17.9176 45.6755 17.033C46.2733 16.1483 46.5722 15.0794 46.5722 13.8261C46.5722 13.0889 46.4327 12.4254 46.1537 11.8356C45.8947 11.2459 45.5161 10.7206 45.018 10.2599C44.5198 9.7991 43.9121 9.39364 43.1948 9.04346C42.4775 8.69329 41.6605 8.37997 40.7439 8.10352C40.0067 7.88236 39.4488 7.67041 39.0702 7.46768C38.6916 7.26494 38.5023 6.97928 38.5023 6.61067C38.5023 6.14992 38.7215 5.80896 39.1599 5.58779C39.6181 5.36663 40.1263 5.25605 40.6842 5.25605C41.4015 5.25605 42.0291 5.37584 42.5671 5.61544ZM76.3161 20.2398L75.8378 17.2541H68.9635L67.2001 20.2398H59.4889L72.4903 0.666922H79.7831L83.4893 20.2398H76.3161ZM74.6423 7.32945L71.6236 12.3609H75.27L74.6423 7.32945ZM102.134 19.0234C102.692 18.6733 103.18 18.3323 103.599 18.0006L100.191 13.3008C99.7131 13.7247 99.1452 14.0841 98.4876 14.379C97.8301 14.6739 97.1227 14.8213 96.3656 14.8213C95.0704 14.8213 94.094 14.4896 93.4365 13.8261C92.7989 13.1626 92.4801 12.3517 92.4801 11.3933C92.4801 10.6561 92.5996 9.96497 92.8387 9.31992C93.0778 8.67486 93.4166 8.11273 93.8549 7.63355C94.2933 7.13593 94.8213 6.7489 95.439 6.47244C96.0567 6.17756 96.7442 6.03012 97.5013 6.03012C98.2386 6.03012 98.8961 6.14992 99.474 6.38951C100.072 6.61067 100.55 6.96085 100.909 7.44003L105.721 2.8509C104.983 2.07683 103.917 1.43178 102.523 0.915729C101.128 0.381252 99.5138 0.114014 97.6807 0.114014C95.8276 0.114014 94.1239 0.427328 92.5697 1.05396C91.0155 1.68058 89.6706 2.53759 88.5348 3.62497C87.399 4.71236 86.5124 5.98404 85.8747 7.44003C85.257 8.89602 84.9482 10.4626 84.9482 12.1397C84.9482 13.4483 85.1773 14.637 85.6356 15.706C86.0939 16.7749 86.7515 17.6872 87.6083 18.4429C88.485 19.1985 89.541 19.7791 90.7764 20.1845C92.0317 20.59 93.4564 20.7927 95.0505 20.7927C96.1065 20.7927 97.063 20.7098 97.9198 20.5439C98.7965 20.3781 99.5836 20.1661 100.281 19.9081C100.978 19.6501 101.596 19.3552 102.134 19.0234ZM117.095 20.2398L112.462 12.0015H112.402L110.848 20.2398H104.123L107.859 0.666922H114.554L113.119 8.15881H113.209L119.904 0.666922H128.333L118.828 10.1216L125.374 20.2398H117.095ZM138.263 5.61544C138.801 5.8366 139.239 6.13149 139.578 6.50009L144.001 2.5468C143.623 2.1782 143.154 1.84646 142.596 1.55157C142.038 1.25669 141.431 1.00788 140.773 0.805149C140.116 0.583986 139.418 0.418113 138.681 0.307532C137.944 0.17852 137.197 0.114014 136.439 0.114014C135.065 0.114014 133.799 0.298317 132.644 0.666922C131.508 1.0171 130.521 1.51471 129.685 2.15977C128.868 2.7864 128.23 3.53282 127.772 4.39904C127.333 5.26526 127.114 6.20521 127.114 7.21887C127.114 8.04823 127.254 8.75779 127.533 9.34756C127.812 9.9189 128.19 10.4165 128.668 10.8404C129.167 11.2459 129.744 11.596 130.402 11.8909C131.079 12.1858 131.797 12.4438 132.554 12.665C133.51 12.9415 134.158 13.2087 134.497 13.4667C134.855 13.7247 135.035 14.0196 135.035 14.3514C135.035 14.7568 134.825 15.0701 134.407 15.2913C133.989 15.494 133.431 15.5954 132.733 15.5954C132.414 15.5954 132.066 15.5585 131.687 15.4848C131.309 15.3927 130.93 15.2821 130.551 15.1531C130.193 15.0056 129.844 14.8306 129.505 14.6278C129.167 14.4251 128.878 14.1947 128.639 13.9367L123.916 17.9729C124.414 18.4152 125.002 18.8115 125.68 19.1617C126.357 19.5118 127.074 19.8067 127.832 20.0463C128.609 20.2859 129.416 20.4702 130.252 20.5992C131.089 20.7282 131.926 20.7927 132.763 20.7927C133.819 20.7927 134.905 20.6637 136.021 20.4057C137.137 20.1477 138.153 19.7422 139.07 19.1893C140.006 18.6364 140.773 17.9176 141.371 17.033C141.969 16.1483 142.268 15.0794 142.268 13.8261C142.268 13.0889 142.128 12.4254 141.849 11.8356C141.59 11.2459 141.212 10.7206 140.713 10.2599C140.215 9.7991 139.608 9.39364 138.89 9.04346C138.173 8.69329 137.356 8.37997 136.439 8.10352C135.702 7.88236 135.144 7.67041 134.766 7.46768C134.387 7.26494 134.198 6.97928 134.198 6.61067C134.198 6.14992 134.417 5.80896 134.855 5.58779C135.314 5.36663 135.822 5.25605 136.38 5.25605C137.097 5.25605 137.725 5.37584 138.263 5.61544ZM134.556 30.7088C135.094 30.9299 135.532 31.2248 135.871 31.5934L140.295 27.6401C139.916 27.2715 139.448 26.9398 138.89 26.6449C138.332 26.35 137.724 26.1012 137.067 25.8985C136.409 25.6773 135.712 25.5114 134.975 25.4009C134.237 25.2719 133.49 25.2073 132.733 25.2073C131.358 25.2073 130.093 25.3917 128.937 25.7603C127.801 26.1104 126.815 26.608 125.978 27.2531C125.161 27.8797 124.524 28.6262 124.065 29.4924C123.627 30.3586 123.408 31.2985 123.408 32.3122C123.408 33.1416 123.547 33.8511 123.826 34.4409C124.105 35.0122 124.484 35.5098 124.962 35.9337C125.46 36.3392 126.038 36.6894 126.695 36.9843C127.373 37.2792 128.09 37.5372 128.847 37.7583C129.804 38.0348 130.451 38.302 130.79 38.5601C131.149 38.8181 131.328 39.113 131.328 39.4447C131.328 39.8502 131.119 40.1635 130.7 40.3846C130.282 40.5874 129.724 40.6887 129.027 40.6887C128.708 40.6887 128.359 40.6519 127.981 40.5782C127.602 40.486 127.223 40.3754 126.845 40.2464C126.486 40.099 126.138 39.9239 125.799 39.7212C125.46 39.5184 125.171 39.288 124.932 39.03L120.304 42.9854L120.873 39.9976H112.684L113.072 37.9519H120.066L121.023 32.9757H114.029L114.387 31.0958H121.71L122.726 25.7603H108.888L105.152 45.3332H119.857L120.277 43.1257C120.761 43.5442 121.326 43.9206 121.973 44.255C122.651 44.6052 123.368 44.9001 124.125 45.1396C124.902 45.3792 125.709 45.5635 126.546 45.6926C127.383 45.8216 128.22 45.8861 129.057 45.8861C130.113 45.8861 131.199 45.7571 132.314 45.499C133.43 45.241 134.446 44.8355 135.363 44.2826C136.3 43.7297 137.067 43.011 137.664 42.1263C138.262 41.2416 138.561 40.1727 138.561 38.9194C138.561 38.1822 138.422 37.5187 138.143 36.929C137.884 36.3392 137.505 35.8139 137.007 35.3532C136.509 34.8924 135.901 34.487 135.184 34.1368C134.466 33.7866 133.649 33.4733 132.733 33.1969C131.996 32.9757 131.438 32.7637 131.059 32.561C130.681 32.3583 130.491 32.0726 130.491 31.704C130.491 31.2432 130.71 30.9023 131.149 30.6811C131.607 30.46 132.115 30.3494 132.673 30.3494C133.39 30.3494 134.018 30.4692 134.556 30.7088ZM50.236 45.1949C51.5511 45.6188 53.0555 45.8308 54.7491 45.8308C56.7018 45.8308 58.4653 45.5267 60.0394 44.9185C61.6334 44.3103 62.9884 43.4809 64.1042 42.4304C65.24 41.3799 66.1067 40.1451 66.7045 38.7259C67.3222 37.3068 67.631 35.7863 67.631 34.1644C67.631 32.8559 67.4019 31.6579 66.9436 30.5705C66.4853 29.4832 65.8078 28.5432 64.9112 27.7507C64.0345 26.9582 62.9386 26.35 61.6235 25.9261C60.3283 25.4838 58.8239 25.2626 57.1103 25.2626C55.1775 25.2626 53.4141 25.5667 51.8201 26.1749C50.246 26.7831 48.901 27.6125 47.7851 28.663C46.6693 29.7135 45.8025 30.9484 45.1849 32.3675C44.5672 33.7866 44.2583 35.3071 44.2583 36.929C44.2583 38.2375 44.4875 39.4355 44.9457 40.5229C45.404 41.6103 46.0715 42.5502 46.9483 43.3427C47.8449 44.1352 48.9408 44.7526 50.236 45.1949ZM60.1589 33.2521C60.3383 33.676 60.4279 34.1368 60.4279 34.6344C60.4279 35.3163 60.3084 35.9798 60.0693 36.6249C59.8302 37.2699 59.4914 37.8413 59.0531 38.3389C58.6147 38.8365 58.0867 39.2328 57.469 39.5276C56.8513 39.8225 56.1539 39.97 55.3768 39.97C54.7392 39.97 54.1713 39.8778 53.6732 39.6935C53.1949 39.5092 52.7865 39.2604 52.4477 38.9471C52.1289 38.6153 51.8799 38.2375 51.7005 37.8136C51.5411 37.3713 51.4614 36.9013 51.4614 36.4037C51.4614 35.7402 51.581 35.086 51.8201 34.4409C52.0592 33.7958 52.3979 33.2245 52.8363 32.7269C53.2746 32.2293 53.8027 31.833 54.4204 31.5381C55.058 31.2248 55.7653 31.0682 56.5424 31.0682C57.1601 31.0682 57.7081 31.1603 58.1863 31.3446C58.6844 31.5289 59.0929 31.7869 59.4117 32.1187C59.7505 32.432 59.9995 32.8098 60.1589 33.2521ZM41.3435 40.9376C41.6623 40.0345 41.9014 39.1498 42.0608 38.2836L44.4818 25.7603H37.5477L35.1267 38.3942C35.0271 38.8734 34.8776 39.2696 34.6784 39.5829C34.4791 39.8962 34.1503 40.0529 33.6921 40.0529C33.2935 40.0529 32.9847 39.9331 32.7655 39.6935C32.5463 39.4539 32.4069 39.1775 32.3471 38.8642L26.0107 40.9376C26.5089 42.5041 27.4055 43.7205 28.7007 44.5867C29.9959 45.453 31.6298 45.8861 33.6024 45.8861C35.1964 45.8861 36.5016 45.6557 37.5178 45.1949C38.5539 44.7158 39.3709 44.1076 39.9686 43.3703C40.5863 42.6331 41.0446 41.8222 41.3435 40.9376ZM88.1347 38.1454C87.9155 39.3065 87.5369 40.3662 86.999 41.3246C86.4809 42.2645 85.7835 43.0662 84.9068 43.7297C84.05 44.3932 83.0138 44.9093 81.7984 45.2779C80.5829 45.6465 79.1881 45.8308 77.614 45.8308C76.2591 45.8308 75.0237 45.6926 73.9078 45.4161C72.792 45.1396 71.8356 44.7434 71.0386 44.2273C70.2415 43.6929 69.6238 43.0478 69.1855 42.2922C68.7471 41.5365 68.5279 40.6795 68.5279 39.7212C68.5279 39.4631 68.5479 39.1682 68.5877 38.8365C68.6276 38.4863 68.6674 38.173 68.7073 37.8966L70.9489 25.7603H77.7933L75.6115 37.0672C75.5716 37.2146 75.5517 37.3713 75.5517 37.5372V37.9795C75.5517 38.5877 75.751 39.1222 76.1495 39.5829C76.548 40.0437 77.2255 40.2741 78.1819 40.2741C78.7996 40.2741 79.2977 40.1819 79.6763 39.9976C80.0748 39.8133 80.3936 39.5737 80.6327 39.2788C80.8718 38.9839 81.0512 38.6522 81.1707 38.2836C81.2903 37.915 81.3899 37.5464 81.4696 37.1778L83.7112 25.7603H90.4361L88.1347 38.1454ZM93.4394 25.7603L89.7034 45.3332H103.811L104.857 39.8594H97.7135L100.403 25.7603H93.4394Z" fill="white"/>
<path d="M8.97047 23.1672V15.114H15.9182V23.1672H24.9766V29.2682H16.0061V37.3214H9.05842V29.2682H0V23.1672H8.97047Z" fill="#FD3ABB"/>
</svg>
