<svg width="20" height="21" viewBox="0 0 20 21" fill="none" xmlns="http://www.w3.org/2000/svg">
<g id="Icon System" clip-path="url(#clip0_1575_836)">
<path id="Vector" d="M18.3332 14.1126V16.6126C18.3341 16.8447 18.2866 17.0744 18.1936 17.2871C18.1006 17.4997 17.9643 17.6906 17.7933 17.8475C17.6222 18.0044 17.4203 18.1238 17.2005 18.1982C16.9806 18.2726 16.7477 18.3002 16.5165 18.2793C13.9522 18.0006 11.489 17.1244 9.32486 15.7209C7.31139 14.4415 5.60431 12.7344 4.32486 10.7209C2.91651 8.54695 2.04007 6.07178 1.76653 3.49595C1.7457 3.2655 1.77309 3.03325 1.84695 2.81397C1.9208 2.59469 2.03951 2.39319 2.1955 2.2223C2.3515 2.05141 2.54137 1.91487 2.75302 1.82138C2.96468 1.72789 3.19348 1.6795 3.42486 1.67928H5.92486C6.32928 1.6753 6.72136 1.81851 7.028 2.08222C7.33464 2.34594 7.53493 2.71215 7.59153 3.11261C7.69705 3.91267 7.89274 4.69822 8.17486 5.45428C8.28698 5.75255 8.31125 6.07671 8.24478 6.38835C8.17832 6.69998 8.02392 6.98604 7.79986 7.21261L6.74153 8.27095C7.92783 10.3572 9.65524 12.0847 11.7415 13.2709L12.7999 12.2126C13.0264 11.9886 13.3125 11.8342 13.6241 11.7677C13.9358 11.7012 14.2599 11.7255 14.5582 11.8376C15.3143 12.1197 16.0998 12.3154 16.8999 12.4209C17.3047 12.4781 17.6744 12.682 17.9386 12.9939C18.2029 13.3058 18.3433 13.7039 18.3332 14.1126Z" stroke="#8A94A6" stroke-width="2" stroke-linecap="round" stroke-linejoin="round"/>
</g>
<defs>
<clipPath id="clip0_1575_836">
<rect width="20" height="20" fill="white" transform="translate(0 0.0126953)"/>
</clipPath>
</defs>
</svg>
