<svg xmlns="http://www.w3.org/2000/svg" width="20" height="18" viewBox="0 0 20 18" fill="none">
<path fill-rule="evenodd" clip-rule="evenodd" d="M9.64853 17.0484C9.4235 17.2734 9.11833 17.3997 8.80013 17.3997C8.48194 17.3997 8.17677 17.2734 7.95173 17.0484L0.751734 9.8484C0.526769 9.62337 0.400391 9.3182 0.400391 9C0.400391 8.6818 0.526769 8.37663 0.751734 8.1516L7.95173 0.9516C8.17806 0.733011 8.48118 0.612057 8.79581 0.614791C9.11045 0.617526 9.41143 0.743728 9.63392 0.966218C9.85641 1.18871 9.98261 1.48968 9.98534 1.80432C9.98808 2.11895 9.86712 2.42208 9.64853 2.6484L4.49693 7.8H18.4001C18.7184 7.8 19.0236 7.92643 19.2487 8.15147C19.4737 8.37652 19.6001 8.68174 19.6001 9C19.6001 9.31826 19.4737 9.62348 19.2487 9.84853C19.0236 10.0736 18.7184 10.2 18.4001 10.2H4.49693L9.64853 15.3516C9.8735 15.5766 9.99988 15.8818 9.99988 16.2C9.99988 16.5182 9.8735 16.8234 9.64853 17.0484Z" fill="white"/>
</svg>