<svg width="41" height="40" viewBox="0 0 41 40" fill="none" xmlns="http://www.w3.org/2000/svg">
<g id="Logo / Icon">
<path id="Vector" d="M24.4763 0C24.278 0.707758 24.0997 1.42155 23.877 2.12197C23.3611 3.74648 22.8232 5.3643 22.2958 6.98528C22.2292 7.19102 22.1709 7.39945 22.061 7.7666L25.8806 6.26491C24.8557 9.10253 23.7308 11.774 22.6691 14.6626L28.3541 11.9178C28.0747 12.8552 27.8404 13.6661 27.5914 14.4728C26.6281 17.5939 25.6783 20.7191 24.6827 23.8305C24.3857 24.7581 24.4526 25.6232 24.8702 26.4712C25.0957 26.9292 25.3845 27.3597 25.6665 27.789C25.9018 28.1472 26.1606 28.4918 26.4234 28.8319C27.836 30.6593 28.0426 32.6598 27.3488 34.7995C26.8233 36.4199 25.9314 37.8443 24.8726 39.1723C24.6381 39.4665 24.255 39.6483 23.7812 40C23.7267 37.7173 23.6766 35.6324 23.6258 33.4901L19.6863 31.7763L15.6884 33.5417V39.681C15.135 39.8325 14.8372 39.5227 14.604 39.2234C14.1474 38.6375 13.7112 38.0296 13.3346 37.3926C12.4696 35.9293 11.9464 34.3335 11.5959 32.6897C11.2915 31.2612 11.6726 29.9966 12.7019 28.9174C13.5676 28.0098 14.6229 27.3583 15.7067 26.7414C16.0083 26.5697 16.3173 26.4099 16.6258 26.2497C17.3473 25.8764 17.8822 25.3339 18.1954 24.5961C18.8841 22.9716 19.5688 21.3454 20.2494 19.7177C20.2678 19.6739 20.2399 19.6117 20.2231 19.4742L15.7261 21.54L20.8354 11.3968C20.8015 11.3597 20.7676 11.3227 20.7337 11.2859L17.7959 12.7608C17.9683 12.4193 18.0647 12.2234 18.1655 12.0297C20.1517 8.20925 22.1393 4.38952 24.1282 0.570473C24.2294 0.376327 24.3756 0.204257 24.5004 0.021984L24.4763 0Z" fill="white"/>
</g>
</svg>
