<svg width="60" height="73" viewBox="0 0 60 73" fill="none" xmlns="http://www.w3.org/2000/svg">
<path id="Vector" d="M59.6579 0.671392C58.554 1.75519 57.4801 2.87093 56.3399 3.91594C53.6965 6.34016 51.0205 8.72937 48.3599 11.1351C48.0229 11.4409 47.6982 11.7602 47.1127 12.3151L55.6001 13.5635C50.7589 17.6689 45.9121 21.367 40.9508 25.5271L54.1198 26.4553C52.6275 27.8734 51.35 29.1078 50.0506 30.3191C45.0223 35.0058 40.0141 39.7143 34.9379 44.3496C33.4242 45.7314 32.6341 47.3791 32.4962 49.3615C32.4217 50.4323 32.4904 51.5189 32.5483 52.5962C32.5966 53.4953 32.7015 54.3939 32.8187 55.2884C33.4485 60.0958 31.7155 63.9602 28.208 67.1383C25.5516 69.5452 22.4392 71.2119 19.1264 72.5287C18.3926 72.8206 17.5086 72.7523 16.2816 72.899C18.5867 68.6788 20.6914 64.8241 22.8554 60.8639L17.5373 53.6258L8.44991 52.6723L1.98528 63.8693C0.825137 63.5679 0.613046 62.692 0.506424 61.9028C0.297888 60.3574 0.149383 58.7935 0.13921 57.2387C0.115958 53.6669 0.850414 50.2102 1.94771 46.8463C2.90153 43.9232 4.92213 42.0146 7.91959 41.1209C10.4404 40.3691 13.0345 40.2826 15.6438 40.2888C16.3698 40.2904 17.0966 40.3216 17.8232 40.3516C19.5207 40.4237 21.059 39.9927 22.4023 38.9741C25.3581 36.7301 28.3084 34.479 31.253 32.2208C31.3323 32.1601 31.3474 32.0175 31.4618 31.7492L21.1557 30.8225L41.0743 17.6565C41.0522 17.5535 41.0298 17.4507 41.0072 17.3482L34.1424 16.9714C34.8138 16.5287 35.1943 16.2719 35.5806 16.0238C43.1946 11.1294 50.8104 6.2376 58.4279 1.3485C58.8153 1.10007 59.2607 0.938763 59.6782 0.736607L59.6579 0.671392Z" fill="#0094b2"/>
</svg>
